<?xml version="1.0" standalone="no"?>
<!DOCTYPE svg PUBLIC "-//W3C//DTD SVG 20010904//EN"
 "http://www.w3.org/TR/2001/REC-SVG-20010904/DTD/svg10.dtd">
<svg version="1.0" xmlns="http://www.w3.org/2000/svg"
 width="243.000000pt" height="175.000000pt" viewBox="0 0 243.000000 175.000000"
 preserveAspectRatio="xMidYMid meet">
<metadata>
Created by potrace 1.16, written by Peter Selinger 2001-2019
</metadata>
<g transform="translate(0.000000,175.000000) scale(0.100000,-0.100000)"
fill="#ffffff" stroke="none">
<path d="M0 875 l0 -875 1215 0 1215 0 0 875 0 875 -1215 0 -1215 0 0 -875z
m1340 10 l0 -805 -35 0 -35 0 0 805 0 805 35 0 35 0 0 -805z m771 515 c58 -16
101 -51 128 -105 23 -43 26 -62 26 -145 0 -80 -4 -103 -24 -144 -13 -27 -36
-56 -51 -64 l-26 -15 47 -46 c64 -62 83 -127 76 -260 -6 -121 -19 -161 -65
-210 -51 -53 -91 -62 -269 -59 l-148 3 -3 515 c-1 283 0 521 3 528 6 15 252
17 306 2z m-1360 -252 c-44 -111 -77 -204 -73 -205 4 -2 97 33 207 76 110 44
202 77 204 75 3 -2 -15 -24 -39 -49 -51 -52 -107 -83 -290 -159 l-136 -57 -32
-85 c-36 -95 -39 -125 -17 -177 36 -86 6 -178 -71 -219 -41 -21 -46 -22 -86
-8 -57 20 -88 66 -88 132 0 64 18 96 81 149 34 29 61 62 77 97 13 29 22 55 21
57 -2 2 -31 -9 -65 -25 -46 -21 -68 -38 -90 -71 -62 -94 -180 -115 -251 -44
-27 27 -33 41 -33 77 0 58 30 104 83 128 51 24 86 25 135 4 57 -24 109 -19
196 18 l79 33 34 80 c103 242 117 268 171 326 30 33 57 58 59 55 3 -2 -32 -96
-76 -208z"/>
<path d="M1880 1150 l0 -200 110 0 c125 0 151 9 183 59 19 31 22 50 22 136 0
116 -14 149 -75 184 -31 17 -55 21 -139 21 l-101 0 0 -200z"/>
<path d="M1880 651 l0 -241 113 0 c133 0 170 13 201 75 18 34 21 58 21 160 0
102 -3 126 -21 159 -37 71 -59 81 -195 84 l-119 4 0 -241z"/>
<path d="M168 794 c-15 -8 -32 -23 -38 -34 -46 -86 71 -160 149 -94 25 21 31
34 31 64 0 68 -74 101 -142 64z"/>
<path d="M412 555 c-16 -13 -32 -38 -35 -54 -8 -37 9 -88 33 -101 78 -42 160
42 125 127 -24 57 -75 69 -123 28z"/>
</g>
</svg>
